<?xml version="1.0" encoding="utf-8"?>
<!-- Generator: Adobe Illustrator 19.1.0, SVG Export Plug-In . SVG Version: 6.00 Build 0)  -->
<svg version="1.1" id="Layer_1" xmlns="http://www.w3.org/2000/svg" xmlns:xlink="http://www.w3.org/1999/xlink" x="0px" y="0px"
	 viewBox="0 0 3122.40698 899.82001" enable-background="new 0 0 3122.40698 899.82001" xml:space="preserve">
<g>
	<path fill="#FFFFFF" d="M299.81027,785.49603H180.55492V329.54288h119.25536V785.49603z M323.07364,212.54289
		c0,44.91914-36.41418,81.33333-81.33334,81.33333s-81.33333-36.41418-81.33333-81.33333s36.41417-81.33333,81.33333-81.33333
		S323.07364,167.62373,323.07364,212.54289z"/>
	<path fill="#FFFFFF" d="M459.40695,230.54289H577.4436V342.5585h139.25537v104.18652H577.4436V631.5683
		c0,11.9834,1.49316,21.78613,4.49268,29.40527c2.98633,7.63184,6.94287,13.61719,11.84375,17.96973
		c4.90088,4.36523,10.47803,7.35156,16.74463,8.98535c6.25391,1.63379,12.92871,2.4502,20.01221,2.4502
		c9.25293,0,20.42041-1.63379,33.48975-4.90137c13.06885-3.2666,44.22363-8.7041,53.48926-16.33594v103.73633
		c-11.98438,7.63184-45.87012,13.33691-61.65771,17.15234c-15.80029,3.80371-31.58789,5.71777-47.37549,5.71777
		c-27.77197,0-51.19141-3.40723-70.24609-10.20996c-19.06787-6.80273-34.30667-17.28027-45.74222-31.44727
		c-11.43506-14.1543-19.74365-32.12402-24.9126-53.91016c-5.18164-21.77344-7.75977-47.375-7.75977-76.78125V446.74503h-92.07813
		V342.54288l91.66309-0.01178V230.54289z"/>
	<path fill="#FFFFFF" d="M1343.28394,230.54289h118.03662V342.5585h119.25537v104.18652h-119.25537V631.5683
		c0,11.9834,1.49316,21.78613,4.49268,29.40527c2.98633,7.63184,6.94287,13.61719,11.84375,17.96973
		c4.90088,4.36523,10.47803,7.35156,16.74463,8.98535c6.25391,1.63379,12.92871,2.4502,20.01221,2.4502
		c9.25293,0,20.42041-1.63379,33.48975-4.90137c13.06885-3.2666,24.22363-8.7041,33.48926-16.33594l40.01416,84.40137
		c-11.98438,7.63184-65.88428,32.67188-81.67188,36.4873c-15.80029,3.80371-31.58789,5.71777-47.37549,5.71777
		c-27.77197,0-51.19141-3.40723-70.24609-10.20996c-19.06787-6.80273-34.30664-17.28027-45.74219-31.44727
		c-11.43506-14.1543-19.74365-32.12402-24.9126-53.91016c-5.18164-21.77344-7.75977-47.375-7.75977-76.78125V446.74503h-92.07813
		V342.54288l91.66309-0.01178V230.54289z"/>
	<path fill="#FFFFFF" d="M1238.3313,625.11267c0,23.01837-5.30957,44.8855-15.92822,65.60223
		c-10.61865,20.71588-25.46143,39.01001-44.5166,54.8595c-19.06738,15.86047-41.65771,28.52045-67.7959,37.97986
		c-26.13818,9.4585-55.00732,14.19373-86.58252,14.19373c-28.3208,0-53.78223-1.53467-76.37256-4.60315
		c-22.60303-3.06934-43.84033-7.92474-63.71191-14.57806c-19.88428-6.64142-38.93896-15.21375-57.17725-25.70331
		c-18.25049-10.47858-37.16504-23.13855-56.76855-37.97986l89.84961-85.16687
		c26.13818,20.46454,51.72754,34.91052,76.78125,43.35077c25.04053,8.43933,52.27637,12.65997,81.68164,12.65997
		c11.97168,0,23.2793-1.65485,33.89795-4.98749c10.61865-3.32074,19.87158-7.79266,27.77197-13.42682
		c7.88721-5.62323,14.15381-12.27655,18.78662-19.94904c4.62012-7.67334,6.94287-16.11273,6.94287-25.31989
		c0-9.71075-1.91406-18.41431-5.71777-26.08771c-3.81592-7.67249-10.61865-15.08075-20.42041-22.25055
		c-9.80176-7.15692-23.41943-14.44592-40.84082-21.86707c-17.43408-7.40924-39.75586-15.72931-66.979-24.93646
		c-23.96875-8.17609-46.96729-17.51535-69.021-28.00491c-22.0542-10.47763-41.38965-23.1376-57.99414-37.9794
		c-16.61719-14.82986-29.9541-32.22549-40.02393-52.17447c-10.08301-19.94901-15.11133-43.47049-15.11133-70.58835
		c0-26.08722,5.57715-50.12427,16.74463-72.12344c11.15479-21.98682,26.40625-40.78503,45.7417-56.39417
		c19.32324-15.59676,41.92578-27.74117,67.7959-36.44518c25.85742-8.69162,53.77002-13.0434,83.72412-13.0434
		c50.09375,0,92.30029,6.13826,126.60693,18.41431c34.30615,12.27652,64.79639,30.18721,91.4834,53.70871l-88.21631,83.63219
		c-16.33643-14.8299-34.5874-26.20697-54.72705-34.14316c-20.15234-7.92474-43.83984-11.89261-71.06299-11.89261
		c-12.5332,0-24.09619,1.79794-34.71484,5.37045c-10.61865,3.58487-19.74414,8.3201-27.36328,14.19461
		c-7.63232,5.88647-13.7583,12.79205-18.37842,20.71634c-4.63281,7.93619-6.94287,16.24438-6.94287,24.936
		c0,9.72269,2.16943,18.54639,6.53467,26.47067c4.35205,7.93668,11.70313,15.60913,22.05371,23.01834
		c10.33789,7.42068,24.09619,14.8418,41.24951,22.25055c17.15332,7.42111,38.51807,15.47751,64.12012,24.16913
		c32.67285,10.74182,60.7124,22.51425,84.13232,35.29391c23.40674,12.79205,42.47461,26.85458,57.17725,42.19955
		c14.70264,15.34583,25.58936,32.60895,32.67285,51.79102C1234.78296,579.46039,1238.3313,601.07611,1238.3313,625.11267z"/>
	<path fill="#FFFFFF" d="M2497.62671,783.04584c-9.26563,4.35156-49.74414,7.88672-61.44727,10.61816
		c-11.7168,2.71875-23.82813,4.08398-36.34863,4.08398c-17.43359,0-34.17871-2.32227-50.23438-6.94238
		c-16.06836-4.63281-30.09473-12.1123-42.06543-22.46289c-11.98438-10.33789-21.51855-23.81543-28.58887-40.43262
		c-7.08398-16.60449-10.61914-36.61621-10.61914-60.03613V107.53703h120.07227v540.00586c0,56.66663,109.01172,28,109.01172,28
		L2497.62671,783.04584z"/>
	<path fill="#FFFFFF" d="M3039.25659,785.49603h-139.67578l-215.17383-188.87439l-0.32813,188.87439h-120.07227V108.35393h120.07227
		l0.32813,384.16772l160.66895-149.14627h137.22559l-209.58594,199.52591L3039.25659,785.49603z"/>
	<path fill="#FFFFFF" d="M2117.40698,658.54291V342.54288h-115v51c-53-57-137-57.96704-137-57.96704
		c-74.33337,0-219.01221,51.96704-219.01221,220.96707c0,104.75287,61.34558,218.98602,219.01221,218.98602
		c81.66663,0,129.21204-28.64728,156-60.98602c16.33337,27,65.66675,122.33331,193,48l-22-87
		C2192.40698,675.54291,2157.40698,698.54291,2117.40698,658.54291z M1865.40698,680.54291c-70.69238,0-128-55.51672-128-124
		c0-68.48337,57.30762-124.00003,128-124.00003s128,55.51666,128,124.00003
		C1993.40698,625.02618,1936.09937,680.54291,1865.40698,680.54291z"/>
</g>
</svg>
